<svg xmlns="http://www.w3.org/2000/svg" viewBox="0 0 164.347 32.48">
  <defs/>
    <g stroke-width=".264583">
      <path d="M1.248 24.9920004q-.544 0-.896-.352t-.352-.896V1.248Q0 .704.352.352T1.248 0h5.984q2.336 0 4.16.992 1.824.96 2.848 2.72 1.056 1.7280004 1.056 4.0000004 0 2.176-1.056 3.872-1.024 1.696-2.848 2.656-1.824.96-4.16.96H2.496v8.544q0 .544-.352.896t-.896.352zm13.376 0q-.416 0-.672-.16-.224-.16-.416-.48l-6.144-9.792 2.496-.64 5.728 9.152q.48.768.16 1.344-.288.576-1.152.576zm-12.128-12.192h4.736q1.632 0 2.88-.64 1.28-.672 2.016-1.824.736-1.152.736-2.624 0-1.568-.736-2.752Q11.392 3.744 10.112 3.072 8.864 2.4 7.232 2.4H2.496zM27.366 25.1520004q-2.592 0-4.608-1.12-1.984-1.152-3.136-3.168-1.12-2.016-1.12-4.608 0-2.624 1.056-4.608 1.088-2.016 2.976-3.168 1.888-1.152 4.352-1.152 2.432 0 4.224 1.12 1.824 1.088 2.816 3.04.992 1.952.992 4.448 0 .512-.32.832-.32.288-.832.288h-13.6v-2.048h13.856l-1.376.992q.032-1.856-.672-3.328-.704-1.472-2.016-2.304-1.28-.832-3.072-.832-1.824 0-3.2.864-1.376.864-2.144 2.4-.736 1.504-.736 3.456t.832 3.456q.864 1.504 2.336 2.368 1.472.864 3.392.864 1.152 0 2.304-.384 1.184-.416 1.888-1.024.352-.288.8-.288.448-.032.768.224.416.384.416.832.032.448-.352.768-1.056.896-2.688 1.504-1.632.576-3.136.576zM46.142 25.1520004q-2.464 0-4.416-1.152-1.952-1.184-3.104-3.2-1.12-2.016-1.12-4.544 0-2.56 1.152-4.576 1.184-2.016 3.2-3.168 2.016-1.184 4.544-1.184 2.528 0 4.512 1.184 2.016 1.152 3.168 3.168 1.184 2.016 1.216 4.576l-.992.768q0 2.304-1.088 4.16-1.056 1.824-2.912 2.912-1.824 1.056-4.16 1.056zm.256-2.24q1.856 0 3.296-.864 1.472-.864 2.304-2.368.864-1.536.864-3.424 0-1.92-.864-3.424-.832-1.504-2.304-2.368-1.44-.896-3.296-.896-1.824 0-3.296.896-1.472.864-2.336 2.368-.864 1.504-.864 3.424 0 1.888.864 3.424.864 1.504 2.336 2.368 1.472.864 3.296.864zm7.648 2.08q-.544 0-.896-.32-.352-.352-.352-.896v-5.472l.608-2.528 1.888.48v7.52q0 .544-.352.896-.352.32-.896.32zM67.9255 25.1520004q-2.528 0-4.512-1.152-1.952-1.184-3.104-3.2-1.12-2.016-1.12-4.544 0-2.56 1.088-4.576 1.088-2.016 2.976-3.168 1.888-1.184 4.352-1.184 1.952 0 3.584.768 1.664.768 2.912 2.304.352.384.256.832-.096.416-.544.736-.352.256-.8.192-.416-.096-.736-.48-1.856-2.112-4.672-2.112-1.792 0-3.168.864-1.344.864-2.112 2.368-.736 1.504-.736 3.456 0 1.92.8 3.424t2.24 2.368q1.44.864 3.296.864 1.248 0 2.272-.32 1.056-.352 1.856-1.056.384-.32.8-.352.416-.032.768.256.384.352.416.8.064.448-.288.768-2.336 2.144-5.824 2.144zM86.028 24.9920004q-1.696 0-3.04-.8-1.312-.8-2.08-2.176-.768-1.408-.768-3.2V3.168q0-.544.32-.896.352-.352.896-.352t.896.352q.352.352.352.896v15.6480004q0 1.632.96 2.688.96 1.024 2.464 1.024h.864q.512 0 .832.352.32.352.32.896t-.384.896q-.384.32-.96.32zm-7.968-14.72q-.48 0-.8-.288-.32-.32-.32-.768 0-.48.32-.768.32-.32.8-.32h8.16q.48 0 .8.32.32.288.32.768 0 .448-.32.768-.32.288-.8.288zM100.374003 24.9920004q-.736 0-1.056-.608-.32-.608-.064-1.184L108.662003.864q.352-.864 1.216-.864.832 0 1.184.864l9.44 22.3680004q.288.608-.096 1.184-.352.576-1.024.576-.384 0-.704-.192-.288-.192-.48-.576l-8.8-21.3440004h.992l-8.864 21.3440004q-.16.384-.48.576-.288.192-.672.192zm2.112-5.952l.96-2.144h12.992l.96 2.144zM125.178003 32.4800004q-.576 0-.928-.352-.32-.32-.32-.896v-15.104q.032-2.496 1.184-4.48 1.184-2.016 3.168-3.168 2.016-1.152 4.512-1.152 2.56 0 4.576 1.184 2.016 1.152 3.168 3.168 1.184 2.016 1.184 4.576 0 2.528-1.152 4.544-1.12 2.016-3.072 3.2-1.952 1.152-4.416 1.152-2.144 0-3.904-.896-1.728-.928-2.784-2.432v9.408q0 .576-.352.896-.32.352-.864.352zm7.616-9.568q1.856 0 3.328-.864 1.472-.864 2.304-2.368.864-1.536.864-3.424 0-1.92-.864-3.424-.832-1.504-2.304-2.368-1.472-.896-3.328-.896-1.824 0-3.296.896-1.472.864-2.304 2.368-.832 1.504-.832 3.424 0 1.888.832 3.424.832 1.504 2.304 2.368 1.472.864 3.296.864zM147.803003 32.4800004q-.576 0-.928-.352-.32-.32-.32-.896v-15.104q.032-2.496 1.184-4.48 1.184-2.016 3.168-3.168 2.016-1.152 4.512-1.152 2.56 0 4.576 1.184 2.016 1.152 3.168 3.168 1.184 2.016 1.184 4.576 0 2.528-1.152 4.544-1.12 2.016-3.072 3.2-1.952 1.152-4.416 1.152-2.144 0-3.904-.896-1.728-.928-2.784-2.432v9.408q0 .576-.352.896-.32.352-.864.352zm7.616-9.568q1.856 0 3.328-.864 1.472-.864 2.304-2.368.864-1.536.864-3.424 0-1.92-.864-3.424-.832-1.504-2.304-2.368-1.472-.896-3.328-.896-1.824 0-3.296.896-1.472.864-2.304 2.368-.832 1.504-.832 3.424 0 1.888.832 3.424.832 1.504 2.304 2.368 1.472.864 3.296.864z" style="-inkscape-font-specification:Comfortaa"/>
    </g>
</svg>
